<svg xmlns="http://www.w3.org/2000/svg" width="377.093" height="511.355" viewBox="0 0 377.093 511.355"><g id="Group_1074" data-name="Group 1074" transform="translate(-8474.828 -661.172)"><path id="Path_1486" data-name="Path 1486" d="M8642.589,1167.349c-14.256-2.322-29.923-.634-44.37-.615q-10.957.015-21.913.029c-7.349.018-15.165-.763-22.322,1.073a1.556,1.556,0,0,0,0,2.977c7.157,1.836,14.975,1.057,22.322,1.073q10.957.024,21.913.029c14.476.019,30.091,1.711,44.37-.614C8644.545,1170.982,8644.546,1167.667,8642.589,1167.349Z" transform="translate(-36)" fill="#1a6083"></path><path id="Path_1487" data-name="Path 1487" d="M8849.564,1167.349c-22.9-2.322-48.065-.634-71.271-.615q-17.6.015-35.2.029c-11.8.018-24.357-.763-35.855,1.073-2.36.377-2.362,2.6,0,2.977,11.5,1.836,24.054,1.057,35.855,1.073q17.6.024,35.2.029c23.251.019,48.336,1.711,71.271-.614C8852.706,1170.982,8852.707,1167.667,8849.564,1167.349Z" fill="#1a6083"></path><path id="Path_1515" data-name="Path 1515" d="M8490.115,716.595H8562.2c19.335,0,80.091,2.874,85.7-2.492,12.491-11.957-24.452-15.2-29.519-11.631a18.951,18.951,0,0,0-13.766-34.233c-14.62,2.232-21.373,19.51-33.8,27.534,3.2-7.394-4.84-16.13-12.866-15.42s-14.151,8.237-15.714,16.141c-4.609-2.781-9.767-5.514-15.093-4.729s-10.009,6.908-7.343,11.585a159.26,159.26,0,0,0-37.364,4.105c-3.284.762-7.181,2.311-7.585,5.659C8474.21,718.465,8484.846,717.732,8490.115,716.595Z" fill="#d2ddef"></path><g id="Group_366" data-name="Group 366"><path id="Path_1516" data-name="Path 1516" d="M8655.139,968.548a23.841,23.841,0,0,1-25.6-23.74q-.023-5.361.158-10.349a150.088,150.088,0,0,1,3.873-29.732,110.416,110.416,0,0,1,9.7-25.84,148.525,148.525,0,0,1,16.244-24.243q7.349-9.523,13.542-18.51a128.4,128.4,0,0,0,10.444-17.977,88.509,88.509,0,0,0,6.375-18.416,67.822,67.822,0,0,0,1.315-20.123q-3.76-49.625-35.854-47.2a27.011,27.011,0,0,0-11.374,3.7,30.8,30.8,0,0,0-10.162,9.885,51.186,51.186,0,0,0-6.829,16.359l-.048.2a32.974,32.974,0,0,1-29.543,25.058l-20.284,1.537c-20.814,1.578-37.79-16.851-34.1-37.4a116.77,116.77,0,0,1,3.6-14.686q7.474-23.58,22.25-39.644a102.575,102.575,0,0,1,35.468-24.953,142.1,142.1,0,0,1,45.659-10.782q27.338-2.072,49.47,4.023a95.774,95.774,0,0,1,64.063,54.621q9.668,21.089,11.8,49.317a108.925,108.925,0,0,1-2.688,35.471,142.37,142.37,0,0,1-11.729,30.625,208.781,208.781,0,0,1-17.883,28.254c-6.879,9.19-14.057,18.452-21.186,28.055a91.787,91.787,0,0,0-9.677,16.274,80.333,80.333,0,0,0-5.608,16.713,110.717,110.717,0,0,0-2.34,18.411c0,.065-.006.13-.01.2A23.888,23.888,0,0,1,8682.2,966.5Zm-25.354,93.375a49.233,49.233,0,0,1,1.894-18.374,42.87,42.87,0,0,1,8.122-15.11,43.5,43.5,0,0,1,13.681-10.752,48.283,48.283,0,0,1,18.6-5,49.129,49.129,0,0,1,19.439,2.114,43.562,43.562,0,0,1,15.145,8.568,42.977,42.977,0,0,1,10.3,13.714,52.013,52.013,0,0,1,2.747,36.255,44.625,44.625,0,0,1-8.106,15.258,40.717,40.717,0,0,1-13.682,10.749,51.063,51.063,0,0,1-18.911,4.871,50.2,50.2,0,0,1-19.127-1.989,40.624,40.624,0,0,1-15.143-8.565,44.471,44.471,0,0,1-10.317-13.862A49.227,49.227,0,0,1,8629.785,1061.923Z" fill="#e8a647"></path><path id="Path_1517" data-name="Path 1517" d="M8645.806,968.548a23.841,23.841,0,0,1-25.6-23.74q-.023-5.361.158-10.349a150.016,150.016,0,0,1,3.873-29.732,110.416,110.416,0,0,1,9.7-25.84,148.525,148.525,0,0,1,16.244-24.243q7.349-9.523,13.541-18.51a128.314,128.314,0,0,0,10.445-17.977,88.509,88.509,0,0,0,6.375-18.416,67.822,67.822,0,0,0,1.315-20.123q-3.76-49.625-35.854-47.2a27.014,27.014,0,0,0-11.375,3.7,30.809,30.809,0,0,0-10.162,9.885,51.208,51.208,0,0,0-6.828,16.359l-.048.2a32.976,32.976,0,0,1-29.544,25.058l-20.283,1.537c-20.815,1.578-37.791-16.851-34.1-37.4a116.94,116.94,0,0,1,3.6-14.686q7.474-23.58,22.25-39.644a102.575,102.575,0,0,1,35.468-24.953,142.1,142.1,0,0,1,45.659-10.782q27.338-2.072,49.47,4.023a98.608,98.608,0,0,1,38.262,19.815q16.129,13.724,25.8,34.806t11.8,49.317a108.952,108.952,0,0,1-2.688,35.471,142.372,142.372,0,0,1-11.729,30.625,208.773,208.773,0,0,1-17.882,28.254c-6.879,9.19-14.058,18.452-21.187,28.055a91.78,91.78,0,0,0-9.676,16.274,80.333,80.333,0,0,0-5.608,16.713,110.614,110.614,0,0,0-2.34,18.411l-.01.2a23.889,23.889,0,0,1-21.985,22.842Zm-25.354,93.375a49.233,49.233,0,0,1,1.894-18.374,42.87,42.87,0,0,1,8.122-15.11,43.5,43.5,0,0,1,13.681-10.752,48.283,48.283,0,0,1,18.6-5,49.129,49.129,0,0,1,19.439,2.114,43.571,43.571,0,0,1,15.145,8.568,42.977,42.977,0,0,1,10.3,13.714,52.013,52.013,0,0,1,2.747,36.255,44.627,44.627,0,0,1-8.107,15.258,40.723,40.723,0,0,1-13.681,10.749,51.068,51.068,0,0,1-18.911,4.871,50.2,50.2,0,0,1-19.127-1.989,40.636,40.636,0,0,1-15.144-8.565,44.5,44.5,0,0,1-10.317-13.862A49.246,49.246,0,0,1,8620.452,1061.923Z" fill="#f6d353"></path><path id="Path_1518" data-name="Path 1518" d="M8589.822,691.893c1.218-1.64-1.169-3.935-2.806-2.8-8.982,6.217-16.736,15.191-23.794,23.483-6.3,7.4-11.933,15.571-14.361,25.112-2.026,7.954-2,17.06,2.468,24.211,2.9,4.641,8.438,9.465,14.062,6.93a.725.725,0,0,0,.146-1.133c-6.5-5.107-11.287-8.4-12.12-17.521-.762-8.344,2.255-16.494,6.554-23.5C8568.062,713.491,8580.7,704.176,8589.822,691.893Z" fill="#fae388"></path><path id="Path_1519" data-name="Path 1519" d="M8654.856,1081.44c-10.147-6.166-16.917-13.369-17.12-26-.2-12.349,5.944-21.951,15.391-29.22a1.106,1.106,0,0,0-.848-2.012c-26.7,6.2-26.981,57.505,1.567,60.957C8655.924,1085.417,8656.412,1082.387,8654.856,1081.44Z" fill="#fae388"></path></g><g id="Group_367" data-name="Group 367"><path id="Path_1520" data-name="Path 1520" d="M8808.134,1156.007a38.881,38.881,0,0,1,1.569,6.026q.094.494.188,1.036c.2,1.114.408,2.385.6,3.8.188,1.3,18.988,2.637,21.045,1.225,2.04-1.413-.33-2.072-.33-2.072a29.194,29.194,0,0,1-10.389-3.045c-5.478-3.578-5.864-24.508-5.864-24.508C8808.772,1122.3,8797.188,1106.437,8808.134,1156.007Z" fill="#e9a989"></path><path id="Path_1521" data-name="Path 1521" d="M8724.056,1167.844c2.087,1.444,21.3.079,21.484-1.271.188-1.428.455-2.714.612-3.86.016-.11.031-.2.047-.3.753-5.587,1.9-15.656,1.9-15.656s-5.112-5.546-8.973-.194c0,0,.47,13.81-4.128,16.038-.188.094-.393.188-.644.3-2.464,1.083-7.485,2.747-9.98,2.825C8724.37,1165.726,8721.969,1166.4,8724.056,1167.844Z" fill="#e9a989"></path><path id="Path_1522" data-name="Path 1522" d="M8817.988,1149.794s-5.6,4.161-14.38.842c0,0-8.307-37.52-15.367-70.553-.826-3.855-13.57-37.6-19-52.191-1.23-3.287-2.072-5.6-2.331-6.4a3.747,3.747,0,0,0-2.3-2.413c-1.295-.438-2.9-.1-3.578,3.61-.113.649-.325,2.381-.583,4.956-2.446,23.9-10.428,121.4-10.428,121.4s-7.353,1.409-12.632-1.15c0,0-5.732-74-6.429-122.323-.064-3.222-.081-6.347-.081-9.311,0-8.841.228-16.112.7-20.889l60.367-2.4s15.48,76.5,16.744,84.172C8811.138,1091.725,8817.988,1149.794,8817.988,1149.794Z" fill="#040247"></path><path id="Path_1523" data-name="Path 1523" d="M8809.7,1162.033q.094.494.188,1.036c.2,1.114.408,2.385.6,3.8.188,1.3,18.988,2.637,21.045,1.225,2.04-1.413-.33-2.072-.33-2.072a29.194,29.194,0,0,1-10.389-3.045A23.222,23.222,0,0,1,8809.7,1162.033Z" fill="#040247"></path><path id="Path_1524" data-name="Path 1524" d="M8724.056,1167.844c2.087,1.444,21.3.079,21.484-1.271.188-1.428.455-2.714.612-3.86.016-.11.031-.2.047-.3a38.291,38.291,0,0,1-11.849.486c-2.464,1.083-7.485,2.747-9.98,2.825C8724.37,1165.726,8721.969,1166.4,8724.056,1167.844Z" fill="#040247"></path><path id="Path_1525" data-name="Path 1525" d="M8798.8,1026.564a211.5,211.5,0,0,1-29.553,1.328c-1.23-3.287-2.072-5.6-2.331-6.4a3.747,3.747,0,0,0-2.3-2.413c-1.295-.438-2.9-.1-3.578,3.61-.113.649-.325,2.381-.583,4.956-11.983-.453-22.833-1.409-29.488-2.073-.064-3.222-.081-6.347-.081-9.311,0-8.841.228-16.112.7-20.889l59.9-2.38,1.427,4.6C8794.135,1003.6,8796.37,1014.549,8798.8,1026.564Z" fill="#030135"></path><path id="Path_1526" data-name="Path 1526" d="M8777.849,925.206c-3.4-6.627,89.93-43.141,43.813-62.943-15.031-6.454-44.493-12.31-44.493-12.31s-4.606,5.223-.973,10.209c0,0,31.179,10.51,36.338,14.209s-28.947,16.933-44.051,19.751C8759.123,895.868,8778.95,927.349,8777.849,925.206Z" fill="#e9a989"></path><path id="Path_1527" data-name="Path 1527" d="M8779.947,850.653s-2.824-.974-6.2-2.553-10.759-5.122-13.491-4.92a6.662,6.662,0,0,0-1.182.566,2.538,2.538,0,0,0-.3.2,6.75,6.75,0,0,0-1.828,1.822c-.042.06-.091.129-.137.2a6.681,6.681,0,0,0-.924,2.221c-.016.074-.028.149-.043.223a9.636,9.636,0,0,0-.194,2.275s7.6,3.423,9.587,5.414c0,0-5.073-.852-6.072.411l-.135,1.1s5.354,1.542,7.676,2.448c5.647,2.2,11.359-.649,11.359-.649S8782.5,854.2,8779.947,850.653Z" fill="#e9a989"></path><path id="Path_1528" data-name="Path 1528" d="M8739.971,869.482a3.317,3.317,0,0,1-.338-1.29,34.08,34.08,0,0,1,.082-8.378,15.841,15.841,0,0,1,1.076-4.713c1.226-2.677,3.831-4.451,6.478-5.74a34.051,34.051,0,0,1,18.049-3.279,10.578,10.578,0,0,1,4.1,1.057,4.509,4.509,0,0,1,2.433,3.3,7.671,7.671,0,0,1-.392,2.688c-1.534,6,.23,11.937-1.843,17.694-.638,1.77-.754,2.038-1.787,1.974-5.509-.339-11.016-.754-16.509-1.283a74.856,74.856,0,0,1-9.571-1.22C8740.742,870.061,8740.249,869.935,8739.971,869.482Z" fill="#040247"></path><path id="Path_1529" data-name="Path 1529" d="M8768.405,867.718s2.509-3.011,5.018,0-1.757,8.773-5.018,9.028C8768.405,876.746,8768.029,869.014,8768.405,867.718Z" fill="#d38864"></path><path id="Path_1530" data-name="Path 1530" d="M8724.238,901.645c1.521,3.609,7.155,17.5,8.976,28.781.973,6.01,4.677,26.647,4.677,26.647,21.265,5.838,44.632,0,44.632,0s12.837-53.859,2.966-60.215c-1.7-1.083-4.677-1.789-7.878-2.244a101.743,101.743,0,0,0-12.774-.832l-.282-3.107c0-.031-.723-7.676-.723-7.676a21.88,21.88,0,0,1-17.611-4.3,59.511,59.511,0,0,1,.727,7.064c.094,1.569.156,3.107.2,4.441.063,2.323.077,4,.077,4a49.4,49.4,0,0,0-8.27.848,45.046,45.046,0,0,0-14.249,5.163A1.156,1.156,0,0,0,8724.238,901.645Z" fill="#e9a989"></path><path id="Path_1531" data-name="Path 1531" d="M8746.22,878.7c2.732,12.4,15.206,11.548,18.134,9.907l-.522-5.607A21.828,21.828,0,0,1,8746.22,878.7Z" fill="#d38864"></path><path id="Path_1532" data-name="Path 1532" d="M8767.831,859.012c1.668,1.734,1.806,5.624,1.945,9.926.421,13.022-3.479,17.089-10.132,17.8s-13.608-1.841-15.042-13.916c-.716-6.038-1.479-11.616.717-14.224C8748.594,854.715,8762.715,853.691,8767.831,859.012Z" fill="#e9a989"></path><path id="Path_1533" data-name="Path 1533" d="M8745.528,871.084s-2.035-5.393-5.248-2.535,1.227,11.005,6.14,10.4C8746.42,878.95,8747.093,872.929,8745.528,871.084Z" fill="#e9a989"></path><path id="Path_1534" data-name="Path 1534" d="M8728.2,900.188a8.294,8.294,0,0,0-5.816,3.751c-4.112,6.212-12.789,52.155-12.807,61.386-.032,16.358,7.691,45.485,7.691,45.485s6.81,1.461,9.38-4.148c0,0-2.114-35.608-1.413-41.917s6.795-31.313,9.59-41.829C8737.271,913.715,8736.682,899.146,8728.2,900.188Z" fill="#e9a989"></path><path id="Path_1535" data-name="Path 1535" d="M8741.781,871a4.542,4.542,0,0,1,1.952,1.275,5.484,5.484,0,0,1,1.434,1.824c.084.218-.22.352-.368.214-.416-.387-.75-.85-1.139-1.269a2.567,2.567,0,0,1-.942.744c-.3.109-.516-.258-.386-.5a2.31,2.31,0,0,1,.778-.745,11.926,11.926,0,0,1-1.551-1.162A.23.23,0,0,1,8741.781,871Z" fill="#d38864"></path><path id="Path_1536" data-name="Path 1536" d="M8764.06,868.629s1.125.419.955-1.575c-.153-1.792-.955-1.55-.955-1.55s-.782-.005-.663,1.562S8764.06,868.629,8764.06,868.629Z" fill="#040247"></path><path id="Path_1537" data-name="Path 1537" d="M8752.65,868.629s1.126.419.955-1.575c-.153-1.792-.955-1.55-.955-1.55s-.782-.005-.664,1.562S8752.65,868.629,8752.65,868.629Z" fill="#040247"></path><path id="Path_1538" data-name="Path 1538" d="M8758.946,873.938c.569-.086,1.878.255,2.146-.361.225-.513-.693-3.54-.824-4.059a51.456,51.456,0,0,1-1.312-5.383.107.107,0,0,1,.2-.053c1.319,2.981,1.812,6.669,2.611,9.835a.284.284,0,0,1-.271.355c-.836-.013-1.648.163-2.482.168C8758.735,874.442,8758.653,873.982,8758.946,873.938Z" fill="#d38864"></path><path id="Path_1539" data-name="Path 1539" d="M8762.825,862.575c.806-.41,2.313-.52,2.9.319a.25.25,0,0,1-.214.375c-.4-.021-.755-.215-1.157-.249a3.264,3.264,0,0,0-1.26.194A.351.351,0,0,1,8762.825,862.575Z" fill="#040247"></path><path id="Path_1540" data-name="Path 1540" d="M8750.963,863.559c.459-1.144,2.458-1.253,3.311-.543a.323.323,0,0,1-.142.534,7.336,7.336,0,0,1-1.541.014,5.046,5.046,0,0,0-1.234.389A.322.322,0,0,1,8750.963,863.559Z" fill="#040247"></path><path id="Path_1541" data-name="Path 1541" d="M8800.095,1020.7c1.57,9.181-73.388-3.223-72.967-7.352,2.737-27.14,5.1-71.169,5.1-71.169s.032-2.284.017-6.024c-.048.34-.081.518-.081.518l-3.189,13.877c-12.193.68-19.4-5.278-19.4-5.278s3.92-17.117,8.454-33.018c3.206-11.238,9.2-15.124,11.934-16.339a6.088,6.088,0,0,1,.972-.372l.471-.147c3.9-1.019,12.338-1.473,12.338-1.473s-2.121,11.5,11.643,12.6c15.53,1.247,14.688-13.246,14.688-13.246s30.377-9.748,35.414-13.084c0,0,7.821,10.008,10.962,21.505,0,0-18.816,9.424-27.787,21.083-.048,1.733-.113,2.8-.113,2.8S8790.2,963.022,8800.095,1020.7Z" fill="#39c"></path><path id="Path_1542" data-name="Path 1542" d="M8716.951,1007.694s.405,2.96.52,6.689.28,11.912,1.692,14.259a6.749,6.749,0,0,0,1.039.8,2.447,2.447,0,0,0,.312.177,6.809,6.809,0,0,0,2.451.81c.072.01.155.022.239.031a6.659,6.659,0,0,0,2.4-.177c.073-.019.146-.041.219-.062a9.628,9.628,0,0,0,2.118-.852s-.374-8.329.509-11c0,0,1.526,4.912,3.105,5.234l1.038-.374s-1.038-5.475-1.276-7.955c-.582-6.035-5.7-9.846-5.7-9.846S8718.966,1003.82,8716.951,1007.694Z" fill="#e9a989"></path><path id="Path_1543" data-name="Path 1543" d="M8725.6,1030.283l.219-.062a83.124,83.124,0,0,1-.281-11.175.07.07,0,0,0-.135-.021A26.9,26.9,0,0,0,8725.6,1030.283Z" fill="#d38864"></path><path id="Path_1544" data-name="Path 1544" d="M8722.965,1030.429l.239.031a84.979,84.979,0,0,1-.291-11.175c0-.073-.115-.094-.125-.021A26.617,26.617,0,0,0,8722.965,1030.429Z" fill="#d38864"></path><path id="Path_1545" data-name="Path 1545" d="M8720.2,1029.442a2.217,2.217,0,0,0,.312.177,89.427,89.427,0,0,1-.229-10.573.063.063,0,0,0-.124-.021A24.258,24.258,0,0,0,8720.2,1029.442Z" fill="#d38864"></path><path id="Path_1546" data-name="Path 1546" d="M8762.867,877.692c-1.22.066-2.355.57-3.6.627-1.049.048-2.219-.4-3.2-.07.732.881,2.386.819,3.431.779a5.846,5.846,0,0,0,3.519-.968A.217.217,0,0,0,8762.867,877.692Z" fill="#d38864"></path><path id="Path_1547" data-name="Path 1547" d="M8816.449,901.7s-18.816,9.424-27.787,21.083l-1.765-12.4Z" fill="#4786b0"></path></g><g id="Group_1074-2" data-name="Group 1074" transform="translate(6662.16 -529.071)"><path id="Path_3980" data-name="Path 3980" d="M1880.094,1601.267s-10.966,18.8-14.922,46.2c-.225,1.555,6,5.923,31.887,9.265,2.93.378,2.842,16.313,8.4,14.754l-.985-17.137s-11.165-9.555-25.718-11.914c0,0,3.316-4.559,11.02-19.545C1893.85,1614.959,1887.061,1596.073,1880.094,1601.267Z" transform="translate(-4.846 -151.967)" fill="#9c4345"></path><path id="Path_3981" data-name="Path 3981" d="M2090.851,1660.186a7.022,7.022,0,0,1-7.9-1.084c-3.021-2.709-7.726-8.468-13.824-20.639-.185-.364-.383-.732-.563-1.109,0,0-1.245-14.528,9.234-21.513a1.053,1.053,0,0,1,1.492.344c.386.69.986,1.814,1.81,3.49,1.915,3.908,5.021,10.839,9.364,22.386,0,0,11.762-16.342,17.139-23.353.63-.843,1.171-1.544,1.6-2.065l6.251,4.4s-.275.9-.821,2.429C2111.983,1631.036,2103.06,1654.031,2090.851,1660.186Z" transform="translate(-139.354 -162.081)" fill="#9c4345"></path><path id="Path_3982" data-name="Path 3982" d="M2188.689,1590.161s2.62,5.224,6.251,4.4a18.6,18.6,0,0,1,3.712-4.743c2.359-2.123,7.552-6.265,8.3-8.468a4.689,4.689,0,0,0,.142-1.271,4.311,4.311,0,0,0-.115-1.041,4.163,4.163,0,0,0-.6-1.435,4.309,4.309,0,0,0-.48-.586,4.748,4.748,0,0,0-1.052-.827,7.361,7.361,0,0,0-.716-.357l-.271-.11a1.462,1.462,0,0,0-1.5.291c-1.447,1.307-5.064,4.462-6.812,5.169,0,0,2.361-3.71,1.7-4.906l-.812-.472a39.651,39.651,0,0,1-4.6,6.389A12.959,12.959,0,0,0,2188.689,1590.161Z" transform="translate(-218.836 -135.598)" fill="#9c4345"></path><path id="Path_3983" data-name="Path 3983" d="M2215.216,1581.862c-.041.031,0,.1.038.073a19.084,19.084,0,0,0,7.132-5.346,7.361,7.361,0,0,0-.716-.357A28.2,28.2,0,0,1,2215.216,1581.862Z" transform="translate(-236.37 -135.997)" fill="#753233"></path><path id="Path_3984" data-name="Path 3984" d="M2219.051,1585.883c-.038.023,0,.087.046.076a19.037,19.037,0,0,0,7.358-5.646,4.348,4.348,0,0,0-.48-.586A29.4,29.4,0,0,1,2219.051,1585.883Z" transform="translate(-238.908 -138.309)" fill="#753233"></path><path id="Path_3985" data-name="Path 3985" d="M2222.774,1591.633c-.038.023,0,.087.045.076a19.32,19.32,0,0,0,6.809-4.97,4.3,4.3,0,0,0-.115-1.04A29.282,29.282,0,0,1,2222.774,1591.633Z" transform="translate(-241.371 -142.258)" fill="#753233"></path><path id="Path_3986" data-name="Path 3986" d="M2206.24,1593.925c.814,1.218-.11,3.589-.974,4.569-.117.133-.388.042-.306-.155a13.111,13.111,0,0,0,.831-2.258,11.16,11.16,0,0,1,.343-2.137C2206.151,1593.907,2206.211,1593.882,2206.24,1593.925Z" transform="translate(-229.588 -147.685)" fill="#753233"></path><g id="Group_1075" data-name="Group 1075" transform="translate(1857.84 1370.623)"><path id="Path_3987" data-name="Path 3987" d="M2023.188,1722.853c-8.219-17.1-6.67-27.366-6.67-27.366s-6.332,9.987-24.123,9.7c0,0-.9,27.976,5.662,31.132,0,0,2.231,41.736,2.995,52.61s5.286,57.293,6.614,67.4,5.8,39.205,4.113,47.62c-.155.775-1.213,1.8-2.52,2.912a21.183,21.183,0,0,1-8.193,4.4s-2.573,1.321.121,2.464c2.709,1.142,19.429-3.905,19.332-5.463-.119-1.668-.184-3.178-.209-4.516a60.562,60.562,0,0,1,.23-7.619s4.078-27.671,3.131-53.327,2.542-41.16,2.672-52.852C2026.625,1764.643,2029.942,1736.9,2023.188,1722.853Z" transform="translate(-1946.812 -1585.5)" fill="#9c4345"></path><path id="Path_3988" data-name="Path 3988" d="M2035.376,2315.111c.1,1.557-16.622,6.605-19.332,5.462-2.694-1.143-.121-2.464-.121-2.464a21.188,21.188,0,0,0,8.193-4.4,24.718,24.718,0,0,0,11.052-3.117C2035.192,2311.932,2035.256,2313.443,2035.376,2315.111Z" transform="translate(-1961.669 -1992.355)" fill="#f6d353"></path><g id="Group_1074-3" data-name="Group 1074" transform="translate(0 115.6)"><path id="Path_3989" data-name="Path 3989" d="M1994.582,1712.067s.037.393.168,1.175A2.6,2.6,0,0,0,1994.582,1712.067Z" transform="translate(-1948.286 -1712.067)" fill="#9c4345"></path><path id="Path_3990" data-name="Path 3990" d="M1911.734,1739.148c-5.392-13.617-6.983-20.96-7.43-23.61-.149,1.715-2.185,4.482-14.821,2.376,0,0-13.22,32.337-12.192,83.349.22,10.9-3.283,57.443-3.471,67.63s-1.53,40.4-1.406,40.457c-.125,1.72-.514,5.461-1.6,7.245a9.44,9.44,0,0,1-2.925,2.505,21.176,21.176,0,0,1-8.754,3.131s-2.74.924-.246,2.455c2.509,1.533,19.794-.975,19.928-2.53.13-1.667.291-3.171.464-4.5a60.536,60.536,0,0,1,1.359-7.5c.031,0,8.143-26.758,11.018-52.27s6.4-42.307,8.206-53.86C1906.459,1761.769,1915.329,1748.226,1911.734,1739.148Z" transform="translate(-1857.84 -1714.363)" fill="#9c4345"></path></g><path id="Path_3991" data-name="Path 3991" d="M1878.817,2317.033c-.134,1.554-17.419,4.062-19.928,2.53-2.494-1.531.246-2.455.246-2.455a21.183,21.183,0,0,0,8.754-3.131,24.728,24.728,0,0,0,11.392-1.441C1879.107,2313.862,1878.947,2315.366,1878.817,2317.033Z" transform="translate(-1857.84 -1993.639)" fill="#f6d353"></path><path id="Path_3992" data-name="Path 3992" d="M1915.158,1799.154s17.163,10.949,58.231.642c0,0-6.455-76.592-14.211-89.054s-29.958,1.432-29.958,1.432Z" transform="translate(-1895.752 -1592.157)" fill="#f6d353"></path><path id="Path_3993" data-name="Path 3993" d="M1944.856,1420.754s-14.225,3.3-15.431-6.044a5.983,5.983,0,0,0-1.834-3.614c-1.974-1.83-4.558-5.613-1.553-11.455a5.878,5.878,0,0,0,.6-3.927c-.561-2.6-.8-7.01,3.448-8.479a5.743,5.743,0,0,0,3.9-4.636c.407-3.2,2.237-7.059,8.727-6.985a5.775,5.775,0,0,0,4.17-1.751c2.3-2.333,6.9-5.4,12.67-1.028a5.765,5.765,0,0,0,4.864,1.014c2.76-.682,6.952-.7,8.96,4.427a5.815,5.815,0,0,0,3.733,3.373c2.455.756,5.5,2.749,5.193,7.995a5.98,5.98,0,0,0,1.322,3.938c1.824,2.395,4.094,6.919.406,11.755a5.734,5.734,0,0,0-1.2,4.179c.375,2.907.049,7.663-5.644,9.005a5.84,5.84,0,0,0-2.97,1.652c-2.388,2.554-8.316,7.375-15.656,2.313C1949.15,1416,1944.856,1420.754,1944.856,1420.754Z" transform="translate(-1902.042 -1370.623)" fill="#3b2645"></path><path id="Path_3994" data-name="Path 3994" d="M1966.384,1434.616a21.879,21.879,0,0,1-.028-19.141c4.964-10.207,17.937-6.8,17.937-6.8s12.015,2.375,12.672,14.35-8.217,15.778-8.217,15.778Z" transform="translate(-1928.162 -1395.429)" fill="#06ad4b"></path><path id="Path_3995" data-name="Path 3995" d="M1969.091,1440.263s-5.364-18.506,11.7-18.456c19.82.058,18.132,15.275,14.932,20.5S1968.47,1448.39,1969.091,1440.263Z" transform="translate(-1930.897 -1404.478)" fill="#3b2645"></path><path id="Path_3996" data-name="Path 3996" d="M1984.834,1546.014a.174.174,0,0,0-.032.064c-6.511,10.251-4.744,23.272-3.327,29.48-12.878,3.167-23.176,3.295-30.706,2.419a39.237,39.237,0,0,1-5.921-3.184s-2.435-21.171-4.457-26.853a20.614,20.614,0,0,1-.732-5.969,148.536,148.536,0,0,1,1.449-18.831,22.654,22.654,0,0,1,6.463-1.942c.4-.064.8-.127,1.178-.191,3.693-.557,7.052-.716,7.052-.716l.381-3.951.259-2.67.426-4.33c.557-5.746,12.321-3.28,12.321-3.28s0,.575,0,1.5l0,12.6c0,.223,2.674.4,5.858.653.35.016.7.048,1.05.08,3.836.334,8.039.8,9.312,1.639C1987.906,1524.19,1987.588,1541.7,1984.834,1546.014Z" transform="translate(-1911.953 -1459.858)" fill="#9c4345"></path><path id="Path_3997" data-name="Path 3997" d="M2001.48,1510.62l0,4.216a18.772,18.772,0,0,1-13.009,4.565l.259-2.67.426-4.329C1991.6,1509.283,1998.984,1510.2,2001.48,1510.62Z" transform="translate(-1944.245 -1462.919)" fill="#753233"></path><path id="Path_3998" data-name="Path 3998" d="M1972.444,1442.046c-1.272,1.789-1.647,5.132-1.774,9.057-.384,11.883,5.353,16.246,9.244,16.248,4,0,12.419-1.681,13.727-12.7.653-5.51.614-10.138-.654-12.979C1990.33,1435.717,1978.025,1434.2,1972.444,1442.046Z" transform="translate(-1932.458 -1414.312)" fill="#9c4345"></path><path id="Path_3999" data-name="Path 3999" d="M1985.187,1475.952s-1.027.382-.872-1.437c.14-1.635.872-1.415.872-1.415s.714,0,.606,1.426S1985.187,1475.952,1985.187,1475.952Z" transform="translate(-1941.485 -1438.399)" fill="#3b2645"></path><path id="Path_4000" data-name="Path 4000" d="M2013.92,1476.658s-1.027.383-.872-1.437c.14-1.635.872-1.415.872-1.415s.714,0,.606,1.426S2013.92,1476.658,2013.92,1476.658Z" transform="translate(-1960.49 -1438.866)" fill="#3b2645"></path><path id="Path_4001" data-name="Path 4001" d="M1997.618,1482.015c-.52-.078-1.714.233-1.958-.329-.2-.469.633-3.231.752-3.7.129-.518.26-.984.39-1.441a1.69,1.69,0,0,0-.14-.1,1.321,1.321,0,0,0-.332-.124c-.486,1.9-.832,3.879-1.286,5.677a.258.258,0,0,0,.247.324c.763-.012,1.5.149,2.265.153C1997.81,1482.475,1997.885,1482.055,1997.618,1482.015Z" transform="translate(-1948.586 -1440.535)" fill="#753233"></path><path id="Path_4002" data-name="Path 4002" d="M1985.013,1464.669c-.736-.375-2.111-.475-2.646.291a.228.228,0,0,0,.2.341c.365-.018.688-.2,1.055-.226a2.973,2.973,0,0,1,1.15.177A.321.321,0,0,0,1985.013,1464.669Z" transform="translate(-1940.184 -1432.64)" fill="#3b2645"></path><path id="Path_4003" data-name="Path 4003" d="M2014.128,1466.822c-.419-1.044-2.243-1.143-3.021-.5a.294.294,0,0,0,.129.488,6.757,6.757,0,0,0,1.406.013,4.615,4.615,0,0,1,1.127.354A.294.294,0,0,0,2014.128,1466.822Z" transform="translate(-1959.158 -1433.656)" fill="#3b2645"></path><path id="Path_4004" data-name="Path 4004" d="M1998.046,1501.4a5,5,0,0,1-2.114.807c-.659.026-1.374-.288-2-.063a.176.176,0,0,0-.1.255c.482.711,1.732.778,2.511.712a2.783,2.783,0,0,0,2.256-1.159A.407.407,0,0,0,1998.046,1501.4Z" transform="translate(-1947.772 -1457.093)" fill="#753233"></path><path id="Path_4005" data-name="Path 4005" d="M2003.006,1431.7a3.666,3.666,0,0,0,1.344,2.235,6.787,6.787,0,0,0,2.551.8,2.99,2.99,0,0,1,2.2,1.417,8.044,8.044,0,0,1,.349,1.856,3.385,3.385,0,0,0,1.568,2.229c.719.422,1.621.578,2.143,1.245a9.118,9.118,0,0,1,.736,1.651c.269.541.88,1.017,1.408.755a16.513,16.513,0,0,0,2.3-5.835,10.03,10.03,0,0,0-3.48-8.8,10.7,10.7,0,0,0-9.025-2.142C2002.724,1427.618,2002.517,1429.491,2003.006,1431.7Z" transform="translate(-1953.716 -1407.827)" fill="#3b2645"></path><path id="Path_4006" data-name="Path 4006" d="M2034.233,1476.087s1.857-4.922,4.789-2.313-1.1,9.651-5.584,9.1C2033.438,1482.875,2032.8,1477.771,2034.233,1476.087Z" transform="translate(-1973.894 -1438.347)" fill="#9c4345"></path><path id="Path_4007" data-name="Path 4007" d="M2039.893,1481.826a4.133,4.133,0,0,0-1.781,1.163,5,5,0,0,0-1.309,1.665c-.076.2.2.321.336.2.379-.353.684-.776,1.039-1.158a2.333,2.333,0,0,0,.86.679c.27.1.47-.236.352-.457a2.116,2.116,0,0,0-.71-.68,10.846,10.846,0,0,0,1.415-1.06A.209.209,0,0,0,2039.893,1481.826Z" transform="translate(-1976.204 -1444.174)" fill="#753233"></path><path id="Path_4008" data-name="Path 4008" d="M1980.9,1619.051a53.926,53.926,0,0,0-.792,13.368c.147,2.574.862,3.841-1.132,5.266a18.128,18.128,0,0,1-4.455,1.742c-10.359,3.529-21.955,3.874-31.881-1.206.016-.032,1.968-7.972-2.155-23.349a49.611,49.611,0,0,1-2.228-8.723,15.06,15.06,0,0,1,.445-4.982,18.4,18.4,0,0,1,2.022-5,120.926,120.926,0,0,0,18.1,1.512c5.507.064,11.445-.955,16.761-1.783,2.086-.35,4.075-.637,5.906-.844l2.388,10.172a.175.175,0,0,0-.032.064c-1.3,3.715-1.491,7.475-2.395,11.208Q1981.135,1617.783,1980.9,1619.051Z" transform="translate(-1910.992 -1519.07)" fill="#f6d353"></path><path id="Path_4009" data-name="Path 4009" d="M1972.929,1761.882c-3.454-.621-11.4-2.212-17.127-7.37a18.672,18.672,0,0,1-2.865-3.152,18.962,18.962,0,0,1-3.486-9.057c-.064-.461-.111-.971-.175-1.544-.048-.589-.112-1.242-.175-1.942-.286-3.231-.589-7.625-.923-12.814-.064-.907-.111-1.831-.175-2.786-.223-3.438-.446-7.179-.685-11.095-.064-1.051-.127-2.1-.175-3.167-.318-5-.636-10.236-.971-15.552-.032-.636-.079-1.257-.127-1.894-.286-4.728-.6-9.471-.939-14.151-.064-.923-.127-1.831-.191-2.738-.255-3.518-.525-6.956-.8-10.283-.079-.828-.143-1.656-.207-2.467-.3-3.55-.621-6.94-.955-10.108-.079-.78-.159-1.56-.255-2.308-.414-3.868-.876-7.338-1.337-10.251-.143-.907-.3-1.783-.446-2.579a35.861,35.861,0,0,0-1.273-5.11c-.525-1.448-1.274-3.422-2.2-5.73q-.263-.716-.573-1.48c-1.019-2.578-2.181-5.46-3.375-8.389-.366-.907-.732-1.814-1.114-2.738-1.051-2.579-2.085-5.142-3.056-7.481-.35-.828-.684-1.639-.987-2.4-2.021-4.855-3.454-8.31-3.454-8.31a78.418,78.418,0,0,1-2.42,8.023c-.239.717-.509,1.465-.812,2.277-.764,2.069-1.687,4.425-2.8,7-.35.828-.732,1.687-1.13,2.563-1.306,2.881-2.818,5.985-4.584,9.28-.08.159-.159.3-.239.461-.191.366-.382.764-.573,1.21a49.879,49.879,0,0,0-2.515,9.073c-.159.764-.3,1.56-.446,2.372-.557,3.041-1.066,6.447-1.528,10.14-.1.637-.175,1.289-.255,1.942-.4,3.311-.78,6.829-1.146,10.49-.08.923-.159,1.847-.255,2.786-.35,3.9-.685,7.959-.987,12.082-.048.717-.111,1.449-.159,2.181-.287,4.091-.557,8.246-.812,12.384-.032.525-.064,1.051-.1,1.592-.271,4.743-.525,9.487-.732,14.135-.048.86-.1,1.719-.143,2.563-.239,5.189-.446,10.2-.605,14.93-.047.844-.08,1.64-.1,2.452-.159,3.9-.271,7.561-.382,10.9-.016.748-.048,1.48-.064,2.2-.127,4.33-.223,8.007-.3,10.84-.016.748-.032,1.449-.048,2.069-.048,2.738-.08,4.266-.08,4.266-7.863,1.847-15.52-1.432-15.52-1.432s.1-1.353.271-4.266c.016-.414.048-.844.064-1.321.159-2.562.35-6.081.589-10.617.016-.542.048-1.083.08-1.64.175-3.614.366-7.832.589-12.687.032-.653.048-1.305.079-1.99.207-4.648.43-9.837.669-15.615.016-.557.048-1.114.064-1.687q.263-6.709.557-14.438c.016-.334.016-.652.032-.987.112-3.12.239-6.351.35-9.726.032-.907.064-1.8.111-2.674.016-.573.048-1.162.08-1.719.255-5.078.621-9.837,1.066-14.278.064-.542.111-1.067.175-1.592q.693-6.279,1.592-11.716c.064-.478.143-.939.223-1.4q.955-5.563,2.037-10.283c.127-.525.239-1.035.366-1.544q1.313-5.468,2.706-9.805c.143-.477.286-.939.445-1.4a104.628,104.628,0,0,1,4.123-10.665q.43-.907.812-1.672c.7-1.417,1.321-2.547,1.815-3.406a13.3,13.3,0,0,0,1.56-4.138,11.6,11.6,0,0,0,.191-1.5.345.345,0,0,1,.016-.127,36.737,36.737,0,0,0-.51-10.458,10.406,10.406,0,0,0-.669-1.99,4.493,4.493,0,0,0-3.247-2.993c-6.686-1.194-12.782-9.662-12.782-9.662s.462-1.465,1.274-3.677c.191-.525.4-1.1.637-1.719.844-2.229,1.926-4.935,3.136-7.562.207-.429.414-.859.605-1.289.78-1.592,1.592-3.12,2.419-4.489.319-.493.621-.971.923-1.417.191-.286.4-.557.589-.812a13.825,13.825,0,0,1,4.107-3.534,18.969,18.969,0,0,1,1.688-.875,29.989,29.989,0,0,1,10.14-2.435c.461,2.34.971,4.744,1.512,7.163.159.716.318,1.448.478,2.181.493,2.117.987,4.218,1.48,6.287.175.732.35,1.448.525,2.165.764,3.152,1.528,6.144,2.228,8.882.191.748.382,1.464.573,2.165.589,2.26,1.13,4.282,1.576,5.969.191.7.366,1.353.541,1.926.6,2.276.987,3.6.987,3.6.43-1.114.844-2.212,1.257-3.295.207-.573.414-1.13.637-1.7.7-1.894,1.353-3.741,1.99-5.54.239-.653.461-1.29.685-1.926,1.019-2.945,1.942-5.73,2.785-8.325.191-.589.382-1.178.573-1.751.828-2.674,1.576-5.11,2.229-7.274.239-.812.462-1.608.669-2.34,1.544-5.364,2.324-8.548,2.324-8.548a26.759,26.759,0,0,1,13.546,3.279c.223.127.462.271.685.43a14.857,14.857,0,0,1,1.958,1.671,47.468,47.468,0,0,1,5.619,7.052c.271.4.525.78.78,1.178,1.21,1.831,2.372,3.725,3.438,5.555.319.557.637,1.1.955,1.639,1.242,2.2,2.324,4.219,3.184,5.826.271.541.525,1.035.748,1.465.669,1.321,1.05,2.1,1.05,2.1a31.082,31.082,0,0,1-12.614,8.192c-2.817,1.017-8.377.9-10.666,2.362-1.235.79-.62,5.3-.58,6.636a49.053,49.053,0,0,0,.716,6.654c.159.844.318,1.671.51,2.531.462,2.2,1.05,4.425,1.7,6.638.239.875.51,1.735.78,2.611.939,2.992,1.974,5.953,3.009,8.8.286.78.557,1.56.844,2.325,4.444,12.238,8.777,23.209,9.989,36.36,1.535,16.651,3.072,33.329,3.114,50.051C1966.99,1728.029,1966.859,1745.718,1972.929,1761.882Z" transform="translate(-1876.573 -1487.667)" fill="#06ad4b"></path></g></g></g></svg>